<svg t="1544584375986" class="icon" viewBox="0 0 3424 1024" version="1.1" xmlns="http://www.w3.org/2000/svg" p-id="2229" height="48" width="48"><path d="M1434.745301 512.087881l417.045032-417.050136c21.083772-21.078669 21.083772-55.688771 0-76.766163l-2.282672-2.287776c-21.077393-21.078669-55.687495-21.078669-76.771267 0L1355.691362 433.562185 938.639951 15.809001c-21.077393-21.078669-55.687495-21.078669-76.766164 0l-2.287775 2.282672c-21.605635 21.082496-21.605635 55.688771 0 76.771268L1276.637423 512.087881 859.586012 929.134189c-21.077393 21.082496-21.077393 55.687495 0 76.771267l2.287775 2.282672c21.078669 21.082496 55.688771 21.082496 76.766164 0l417.051411-417.046308 417.045032 417.046308c21.083772 21.082496 55.693875 21.082496 76.771267 0l2.282672-2.282672c21.083772-21.083772 21.083772-55.688771 0-76.771267L1434.745301 512.087881z m0 0" fill="#707070" p-id="2230"></path></svg>